<svg class="search__icon" width="20" height="20" viewBox="0 0 20 20" fill="none" xmlns="http://www.w3.org/2000/svg">
                    <path fill-rule="evenodd" clip-rule="evenodd" d="M14.2555 13.2662L19.0156 18.2168C19.4182 18.6357 19.4049 19.3034 18.9864 19.7061C18.7895 19.8957 18.53 20 18.2565 20C17.9676 20 17.6979 19.8852 17.4975 19.677L12.7013 14.6888C11.3394 15.6458 9.74652 16.15 8.07499 16.15C3.62251 16.15 0 12.5275 0 8.07499C0 3.62251 3.62251 0 8.07499 0C12.5275 0 16.15 3.62251 16.15 8.07499C16.15 9.98069 15.4794 11.8113 14.2555 13.2662ZM14.0435 8.07499C14.0435 4.78391 11.3661 2.10652 8.07499 2.10652C4.78391 2.10652 2.10652 4.78391 2.10652 8.07499C2.10652 11.3661 4.78391 14.0435 8.07499 14.0435C11.3661 14.0435 14.0435 11.3661 14.0435 8.07499Z"></path>
                </svg>